<svg width="188.39mm" height="153.11mm" version="1.1" viewBox="0 0 667.51 542.52" xmlns="http://www.w3.org/2000/svg">
<g transform="translate(4778.4 368.93)">
<path d="m-4444.7 117.03c-117.36 0-214.7-97.341-214.7-214.7 0-6.1027 0.2802-12.15 0.7968-18.133l179.65 11.21-77.701 53.682c-1.052 0.7409-1.7454 1.9599-1.7454 3.3382 0 2.2467 1.825 4.0711 4.0717 4.0711h317.25c-24.395 91.692-108.92 160.53-207.62 160.53m0-429.41c117.36 0 214.7 97.349 214.7 214.71 0 6.0549-0.2671 12.062-0.7806 18.005l-179.47-11.409 77.878-53.363c1.0591-0.74094 1.7441-1.9599 1.7441-3.3382 0-2.2467-1.8163-4.0712-4.0547-4.0712h-317.64c24.403-91.692 108.92-160.53 207.62-160.53m307.92 238.69-58.74-3.7365c0.535-6.6763 0.8199-13.432 0.8199-20.244 0-138.08-111.93-250-250-250-119.46 0-219.35 83.805-244.09 195.83h-46.129c-3.0194 0-5.7205 1.4341-7.4331 3.6648l-13.728 18.953c-0.6181 0.79667-0.9876 1.7926-0.9876 2.8761 0 2.5972 2.0957 4.6925 4.693 4.6925l58.509 3.6489c-0.542 6.7082-0.8287 13.488-0.8287 20.34 0 138.07 111.93 250 250 250 119.47 0 219.35-83.805 244.1-195.83h46.36c3.0272 0 5.72-1.434 7.4335-3.6648l13.735-18.953c0.6181-0.79667 0.988-1.7926 0.988-2.8761 0-2.5972-2.1035-4.6925-4.6929-4.6925" fill="#fff"/>
</g>
</svg>
