

<svg xmlns="http://www.w3.org/2000/svg" width="125" height="25" viewBox="0 0 125 25">
  <path fill="#ffd500"
    d="M110.643 10.701l-.597.047c-.348.056-.7.135-1.033.2l-.374.113-.32.119c-.184.028-.354.15-.523.23l-.207.1c-.066.021-.407.183-.422.24-.013.046-.216.128-.263.159-.047.03-.179.181-.241.181-.061 0-.222.157-.272.199-.087.071-.211.156-.285.246-.166.2-.394.373-.579.56l-.317.36c-.065.07-.146.239-.23.282-.064.033-.152.192-.193.25-.042.06-.111.222-.169.248l-.136.198-.159.252-.329.595c-.167.324-.328.66-.447 1.027l-.311.909c-.036.119-.079.269-.092.4-.022.21-.08.453-.121.675-.034.183-.032.347-.038.541-.007.205-.04.372.002.576.084.415.241.75.572 1.031l.255.161c.1.09.395.213.524.213l.415.084c.276.048.533.075.814.069.503-.011.997-.01 1.487-.088.242-.039.581-.076.865-.15l.566-.137.238-.064c.077 0 .212-.07.281-.093.082-.028.231-.107.314-.107.07 0 .202-.074.28-.107l.288-.132c.163-.051.344-.17.497-.262l.289-.163.181-.111.231-.16c.036-.067.197-.147.262-.203l.316-.243c.259-.224.552-.498.753-.764.265-.351.526-.7.731-1.09l.21-.444.127-.269c.035-.081.128-.213.128-.294l.119-.269c0-.096.109-.276.145-.357l.128-.265c.034-.077.127-.22.127-.296 0-.072.085-.214.117-.287l.128-.265.15-.337c.036-.081.124-.225.124-.3 0-.071.085-.213.117-.286l.159-.339.264-.604.154-.361c.02-.073.08-.254.144-.317-.038-.043-.207-.116-.261-.116-.073 0-.213-.083-.293-.116-.172-.071-.353-.161-.536-.222-.47-.157-.962-.376-1.448-.431-.299-.034-.681-.164-1.047-.164l-1.259-.052m-67.776 4.281l2.603-.033 1.231-.063 1.49-.114c.573 0 1.257-.2 1.885-.255.384-.034.746-.164 1.103-.256l.224-.052.264-.087c.101-.034.29-.135.381-.135.086 0 .247-.098.318-.129l.295-.148c.388-.204.888-.594 1.05-1.006.144-.365.139-.842-.188-1.208-.162-.181-.37-.314-.586-.423-.102-.051-.282-.15-.376-.15l-.154-.054-.429-.088c-.544-.091-1.085-.068-1.644-.068l-.574.041-.281.021c-.148 0-.385.028-.545.076-.56.078-1.038.175-1.614.364-.284.093-.468.172-.682.251-.405.15-.754.339-1.155.593-.372.235-.729.465-1.069.796l-.218.232c-.033.034-.258.222-.258.266l-.149.174-.128.158c-.071.055-.146.181-.191.25l-.137.224c-.164.282-.336.55-.466.823zm69.462 6.297c-.11.033-.215.116-.31.169l-.24.129-.213.117-.205.116-.238.126-.246.127c-.056.031-.187.119-.249.119l-.247.114c-.074 0-.211.103-.265.127l-.284.121-.566.231-.283.096-.611.219c-.627.231-1.418.429-2.036.524l-1.293.219c-.178.027-.354.056-.539.056l-.961.073-.929.033-1.533-.051c-.172 0-.377-.037-.569-.068-.451-.074-.902-.188-1.336-.279-.405-.085-.835-.298-1.209-.479-.428-.208-.787-.509-1.183-.877-.139-.13-.239-.259-.351-.386-.047-.054-.144-.169-.166-.238l-.144-.249c-.125-.252-.359-.646-.385-.919-.031-.32-.176-.718-.176-1.069 0-.495-.016-.972.064-1.451.092-.549.186-1.021.365-1.554.072-.214.129-.39.195-.54l.117-.243c.079-.19.16-.345.255-.518.024-.044.103-.158.103-.215l.177-.296c.013-.056.127-.251.176-.281.056-.035.099-.161.135-.217l.181-.235c.034-.043.203-.225.203-.276 0-.046.185-.26.224-.284.117-.073.236-.274.343-.39l.532-.544c.204-.221.455-.43.679-.615.086-.071.225-.153.29-.241.067-.091.205-.162.293-.233.043-.035.2-.182.252-.182.027 0 .217-.134.229-.159.014-.029.188-.148.216-.148.05 0 .174-.109.222-.137l.237-.154.329-.203c.116-.039.207-.122.301-.174.716-.395 1.466-.733 2.215-1.007l.509-.181 1.427-.413c.341-.104.758-.178 1.128-.235.352-.054.748-.158 1.086-.158l.543-.052.589-.042c.643-.017 1.255-.043 1.896-.008.782.043 1.546.126 2.354.262.592.175 1.111.228 1.708.476l.252.094c.057.026.183.098.248.098l.271.115.246.116c.065 0 .175.084.228.108l.215.105c.064.034.194.081.243.139.016.019.176.098.2.093l.075-.093c0-.078.245-.297.299-.365.266-.333.488-.653.897-.653l3.985-.01h.991c.21 0 .409-.013.611.058.345.12.205.345.158.547-.02.088-.132.196-.132.293 0 .075-.095.236-.129.312l-.128.296c-.226.505-.479 1.058-.675 1.547l-.255.628c-.376.924-.864 1.955-1.242 2.86-.175.42-.328.812-.517 1.21-.194.41-.35.824-.53 1.23l-.509 1.185c-.082.186-.149.384-.212.565l-.092.379c-.037.176-.121.388-.121.527l-.06.45c0 .187-.005.34.02.51l.054.232c.059.181.199.465.215.622l.1.28c.029.089.131.358.085.487-.084.237-.632.248-.86.303-.263.064-.538.091-.802.145-.224.069-.534.144-.768.144-.217 0-.478.099-.693.136l-1.548.289c-.503.083-1.085.275-1.538.275-.205 0-.349.016-.508-.071-.123-.067-.233-.185-.316-.297-.114-.157-.191-.292-.252-.449-.089-.23-.212-.521-.212-.755l-.076-.492-.032-.624.008-.022zm-70.342-3.559c-.006.321-.024.647.027.965l.12.443c0 .093.115.199.154.307.072.202.353.445.526.572.293.214.634.397.962.497.202.061.45.153.657.193.551.107 1.051.201 1.544.224.649.03 1.372.044 2.037.022.452-.015.821-.059 1.275-.092.296-.022.59-.072.884-.11l.636-.107c.304-.047.619-.141.926-.169l.608-.129c.118 0 .258-.061.391-.09l.512-.109c.251-.061.683-.223.929-.223.261 0 .605-.16.904-.16.15 0 .293-.009.41.066.111.072.211.197.297.296.056.065.314.295.314.379l.139.172.128.154.129.162.203.246.567.674c.037.03.136.18.129.227-.006.045-.141.134-.18.141l-.253.114-.177.059-.71.229-.558.145c-.164.038-.395.127-.534.127-.298 0-.675.198-1.004.216l-.642.118c-.212.012-.436.066-.645.101-.296.05-.616.116-.898.15-.278.033-.627.118-.931.118-.152 0-.332.044-.48.06-.338.036-.674.099-1.018.099-.371 0-.728.073-1.118.091-.733.035-1.519.082-2.305.1-.908.021-1.848-.069-2.718-.069l-1.022-.096c-.516 0-1.076-.124-1.582-.219-.355-.067-.702-.168-1.056-.243l-.782-.236c-.213-.039-.388-.13-.575-.201l-.545-.243c-.317-.132-.651-.346-.983-.561-.449-.292-1.006-.795-1.335-1.261-.23-.326-.356-.636-.498-.966-.172-.398-.262-.848-.262-1.246 0-.558-.01-1.061.112-1.598l.148-.622.056-.165.086-.258c.067-.213.168-.384.248-.589.033-.085.133-.184.133-.27 0-.031.075-.175.106-.202.121-.106.21-.359.298-.478l.167-.254.165-.236.123-.154.128-.158.052-.054.209-.251.323-.347c.107-.111.275-.222.357-.351.104-.164.369-.316.52-.456l.169-.132c.065 0 .245-.187.306-.232.059-.045.194-.113.234-.175.019-.029.201-.166.234-.166.03 0 .19-.111.205-.135l.219-.149c.069-.051.201-.077.249-.149l.109-.076c.124-.044.28-.147.374-.2l.209-.114c.223-.138.419-.223.615-.32.159-.079.309-.174.491-.238l.578-.26.497-.189c.534-.231 1.226-.482 1.844-.623.232-.053.545-.142.795-.218l.983-.24.971-.184c.262-.049.555-.055.808-.135l.562-.069c.2-.037.419-.021.614-.077.189-.015.386-.056.576-.056l1.148-.072 1.747-.033c.675 0 1.351.057 2.018.094.449.025.811.101 1.298.15.566.056 1.031.199 1.574.311.294.061.624.199.87.263l.345.127c.256.089.473.181.659.275.355.181.807.435 1.118.753.252.258.507.504.648.783.068.134.212.307.212.45l.106.463c0 .289.034.564-.017.855-.047.273-.151.621-.27.818l-.136.245-.145.2-.11.144-.16.184c0 .043-.203.21-.235.243l-.177.157c-.13.155-.354.271-.508.373-.33.219-.724.463-1.063.605l-.251.129c-.08.035-.229.126-.31.126l-.258.111-.337.123-.26.084-.301.108-.378.115c-.191.04-.412.104-.618.17-.68.221-1.27.283-1.996.451-.33.076-.682.077-1.009.173-.139.022-.303.067-.431.067-.339 0-.686.1-1.024.132-.355.034-.717.098-1.06.116-.356.019-.704.101-1.063.101-.398 0-.787.066-1.206.087-.438.022-.848.062-1.302.077-1.517.047-3.021.085-4.588.085m-25.725-11.833c-.022.131-.091.249-.138.352l-.138.296-.264.637-.265.592c-.363.791-.754 1.759-1.09 2.545-.033.077-.129.23-.129.312 0 .119-.144.342-.2.47l-.43 1-.376.868-.132.317c-.06.206-.193.452-.285.665l-.433 1.003-.24.559-.254.614c-.365.806-.697 1.632-1.059 2.439-.242.539-.502 1.174-.743 1.748h4.336c.795 0 1.522-.082 2.301-.17.344-.039.688-.11 1.027-.186.182-.041.437-.142.594-.142l.226-.065c.117 0 .319-.097.455-.141l.51-.186.258-.096c.083 0 .2-.082.281-.114l.35-.159.435-.225c.192-.119.475-.301.676-.414l.213-.128c.044-.031.177-.167.232-.167.044 0 .212-.145.254-.181.094-.081.216-.144.287-.243l.17-.138.083-.074c.064 0 .272-.246.324-.299.164-.167.321-.366.491-.51.231-.196.413-.511.584-.73.049-.062.113-.193.176-.233.024-.016.143-.188.143-.211l.125-.197c.05-.03.164-.232.186-.298.02-.061.119-.271.165-.296.046-.025.098-.181.126-.229.171-.286.314-.675.443-1.004l.111-.259.289-.908c.149-.673.374-1.418.374-2.107 0-.414.025-.843-.005-1.292-.016-.241-.081-.51-.165-.694l-.103-.227-.123-.224c-.021-.064-.114-.192-.168-.236l-.366-.382c-.044-.038-.216-.192-.265-.192l-.275-.172-.213-.104c-.055 0-.209-.086-.274-.116l-.287-.106c-.194-.057-.536-.175-.764-.223-.473-.101-1.086-.198-1.567-.221-.451-.022-.978-.095-1.472-.095l-4.002-.023m74.218-1.809c.098.12.021.218.021.352l-.105.27c0 .073-.099.206-.128.276l-.128.297c-.149.385-.354.758-.526 1.145-.151.339-.294.672-.46 1.028l-.223.476c-.089.189-.126.361-.241.553h6.575c.68 0 1.401-.069 2.077.023.169.023.315.066.452.161.058.04.026.156.026.204 0 .046-.121.215-.173.248l-.093.144-.095.121c-.03.039-.169.199-.169.242 0 .051-.149.214-.181.258-.043.06-.114.196-.18.236-.055.033-.138.184-.18.24-.031.042-.181.209-.181.253 0 .049-.137.209-.166.246-.084.103-.195.223-.316.284-.099.05-.286.076-.427.079-.339.008-.68-.003-1.02-.003h-7.048c-.118 0-.095.025-.13.125l-.053.108c-.032.082-.117.225-.117.297 0 .081-.083.219-.113.296l-.117.253c-.078.192-.197.4-.24.597-.041.185-.156.404-.237.594l-.255.612-.241.564c-.211.517-.431 1.071-.656 1.597l-.139.33-.065.171c0 .073-.081.192-.106.262l-.135.31-.266.646c-.077.179-.174.375-.241.567l-.121.25c-.059.136-.105.282-.157.467-.088.309-.154.734-.004 1.009l.1.136.171.149c.021.049.224.142.278.153l.341.113c1.008.248 2.218.136 3.222.064.777-.056 1.636-.236 2.434-.368.385-.064.762-.165 1.149-.221.16-.023.372-.032.528.033l.121.119.147.256.111.213.245.509.296.603.105.224c.034.074.163.341.117.455-.056.138-.413.223-.518.256-.287.09-.646.145-1.001.239-.606.161-1.267.193-1.856.304-.19.036-.383.047-.574.069-.174.051-.418.078-.583.078l-.482.049-1 .11c-.538 0-1.147.101-1.674.123-.664.027-1.354.065-2.047.065l-2.074-.051c-.387 0-.811-.059-1.215-.121-.548-.084-1.14-.201-1.591-.302-.186-.042-.518-.218-.738-.242-.088-.01-.201-.08-.292-.118l-.42-.226c-.363-.199-.767-.572-.977-.953-.1-.182-.232-.414-.232-.663l-.038-.403.029-.392c0-.16.066-.348.084-.483.059-.43.267-.777.422-1.155.168-.409.331-.808.516-1.212l.163-.371c.292-.649.566-1.306.847-1.96.162-.378.361-.838.507-1.164.034-.076.129-.234.129-.313l.122-.281.133-.32.138-.296c.035-.079.124-.229.124-.31 0-.076.095-.241.129-.314l.134-.298.128-.285c.034-.082.128-.229.128-.312 0-.041.062-.185.098-.239-1.388 0-2.785.046-4.172.003-.276-.009-.698-.015-.698-.338 0-.178.116-.305.14-.419l.111-.262.246-.52.107-.245c.032-.071.112-.208.112-.276 0-.078.094-.209.128-.296.045-.114.119-.228.267-.286.238-.093.525-.096.802-.096h3.19c.149 0 .931.072.969-.047l.119-.292c.167-.391.339-.813.521-1.222.176-.393.327-.802.518-1.206l.139-.297c.034-.078.127-.231.127-.314l.125-.295c0-.034.103-.249.16-.249l.185-.096.209-.052c.183-.026.37-.044.564-.044l1.442-.106c.744 0 1.5-.129 2.248-.155.818-.029 1.548-.114 2.388-.14.183-.009.302.013.451.115zm-80.17-1.371h8.762c1.097 0 2.195-.006 3.288.021.452.011.905.052 1.353.052.457 0 .924.085 1.366.114.46.031.856.079 1.253.142 1.214.19 2.458.382 3.611.785l.562.192c.2.064.387.164.572.242l.273.128.224.105.232.117c.108.061.227.17.341.208l.233.151c.052.036.181.162.232.162.06 0 .235.174.288.219.106.088.244.202.346.316.171.19.343.372.478.546.039.05.13.214.181.238.053.024.14.208.17.261l.146.285c.091.177.151.343.212.543.069.224.214.6.214.9 0 .334.04.723.028 1.089-.007.21-.031.396-.05.575-.049.438-.128.951-.214 1.325l-.095.348-.222.804-.168.511c-.023.078-.106.179-.106.266 0 .063-.07.192-.096.254l-.141.317c-.051.201-.203.398-.293.605l-.212.404c-.147.266-.29.571-.455.795l-.274.411-.18.234c-.034.047-.192.216-.192.267l-.102.137c0 .066-.277.337-.321.39-.177.213-.337.414-.53.592l-.88.841c-.204.19-.406.378-.614.53l-.995.721-.209.148-.234.144-.162.088-.278.18c-.083.044-.247.183-.326.183-.066 0-.216.117-.282.148l-.247.127c-.161.094-.338.175-.497.253-.408.2-.808.391-1.197.52l-.52.194-.455.158c-.137.046-.333.159-.476.159l-.372.117-.929.249-1.069.248c-.385.072-.846.152-1.256.245-.309.071-.642.058-.947.148l-1.073.116-.546.051c-.365.017-.742.085-1.134.085l-1.427.063-1.941.012h-10.879999999999999c-.213-.002-1.078.057-1.078-.267 0-.088.002-.206.03-.29l.109-.283c0-.074.078-.205.113-.283l.068-.152.268-.612.838-1.93.236-.531.065-.165c0-.073.093-.222.128-.302.284-.635.679-1.554.996-2.293l.404-.935.204-.465c.056-.127.207-.342.207-.479 0-.08.089-.228.125-.301.184-.379.363-.78.518-1.178.076-.195.152-.394.245-.593.084-.18.209-.385.261-.584.052-.197.178-.397.257-.582l.245-.593c.181-.39.349-.789.519-1.178.339-.771.646-1.558.996-2.32l.333-.758c.281-.641.553-1.285.839-1.924l.151-.351c.038-.086.129-.226.129-.307 0-.08.088-.223.124-.307l.139-.284c.097-.204.173-.41.443-.477l.32-.055zm65.459-1.27c.192-.009.398-.023.432.197.029.188-.013.304-.079.496-.036.105-.13.232-.13.32 0 .07-.081.189-.106.249l-.128.295c-.144.336-.295.712-.455 1.031-.088.176-.151.34-.229.529l-.118.232c-.035.088-.126.224-.126.308 0 .062-.088.204-.12.272l-.125.268-.14.345c-.295.653-.587 1.308-.877 1.964-.581 1.314-1.155 2.631-1.74 3.944l-.422.942c-.041.09-.149.279-.149.353l-.116.258c0 .071-.084.212-.117.28-.027.055-.114.178-.114.252 0 .073-.086.194-.117.269l-.13.266c-.322.705-.598 1.442-.93 2.122l-.22.517-.138.298c-.029.063-.108.179-.108.241 0 .069-.079.196-.107.256l-.138.287-.21.499-.245.506c-.072.172-.213.397-.213.571 0 .134-.075.283-.023.449.057.183.237.278.425.343.564.195 1.197.102 1.778.081.326-.019.746-.094 1.115-.149.258-.038.667-.101.796.159.056.113.075.256.114.383.129.422.286.885.387 1.329.037.16.12.294.12.454 0 .169.13.361-.085.417l-.327.12c-.546.147-1.307.324-1.927.363-1.032.064-1.934.22-2.992.22-1.093 0-2.199.024-3.204-.085-.376-.041-.801-.117-1.187-.193l-.412-.103-.553-.203-.273-.126-.274-.155c-.131-.043-.314-.222-.416-.333-.073-.072-.204-.199-.236-.291-.049-.141-.208-.33-.208-.458l-.085-.531c0-.521.086-1.09.168-1.571.08-.465.234-.88.392-1.274.15-.375.323-.743.477-1.091l.224-.544.117-.229c.03-.072.114-.201.114-.282 0-.063.086-.211.117-.281l.128-.266.266-.627.487-1.079c.357-.842.819-1.875 1.215-2.782.429-.981.932-2.036 1.304-2.985.135-.346.325-.699.465-1.039.308-.75.625-1.426.966-2.195l.92-2.129.256-.552.063-.159.143-.138c.052-.094.303-.113.395-.126.359-.046.782-.136 1.197-.136.281 0 .586-.059.849-.087l.533-.057c.681-.041 1.32-.16 2.001-.197.66-.036 1.381-.181 2.085-.232z" />
</svg>