

<svg version="1.1" xmlns="http://www.w3.org/2000/svg" xmlns:xlink="http://www.w3.org/1999/xlink" x="0px" y="0px"
  width="102px" height="13px" viewBox="0 0 1200 150" enable-background="new 0 0 1200 150" xml:space="preserve">
  <g id="_x32_">
    <g>
      <path fill="#0058b5" d="M161.264,107.38c-20.58,17.618-51.45,25.258-80.761,25.258C55.246,132.638,25,126.401,25,99.116
			c0-18.085,8.419-38.51,25.569-53.166c25.569-21.672,59.557-25.414,79.825-25.414c53.009,0,55.815,25.102,55.815,33.521
			C186.209,70.584,177.79,93.036,161.264,107.38z M126.652,98.025c14.344-16.527,17.462-33.833,17.462-46.15
			c0-5.145-0.623-14.968-19.644-14.968c-20.892,0-33.364,11.226-39.289,18.242C71.149,71.208,67.095,89.45,67.095,101.144
			c0,6.392,1.871,15.124,20.268,15.124C108.567,116.267,120.416,105.197,126.652,98.025z" />
      <path fill="#0058b5" d="M374.235,128.117c-0.312,0.623-0.624,1.871-4.054,1.871h-29.311c-2.183,0-5.301-0.156-3.742-3.274
			l21.203-45.994c0.936-2.183,2.183-4.834,2.183-7.952c0-4.833-4.365-6.081-9.355-6.081c-24.01,0-35.235,17.15-41.16,30.559
			l-13.408,30.871c-0.312,0.935-0.935,1.871-4.053,1.871h-29.311c-2.183,0-5.301-0.156-3.742-3.274l20.268-44.435
			c0.935-2.027,3.118-6.081,3.118-9.511s-3.118-6.081-10.914-6.081c-12.161,0-28.999,5.145-40.224,30.559l-13.408,30.871
			c-0.312,0.935-0.935,1.871-4.054,1.871h-29.311c-2.183,0-4.989-0.156-3.742-3.274L203.36,77.6
			c2.495-5.301,2.806-8.108,2.806-10.602c0-2.339-0.312-3.742-1.559-6.081c-0.312-0.623-1.247-2.806-1.247-3.43
			c0-1.247,1.871-1.403,3.43-1.715l26.192-5.145c1.559-0.312,2.807-0.624,4.054,0.312c1.247,0.936,2.806,3.742,3.43,6.548
			c0.624,2.183,0.936,6.392,0.936,8.575l1.559-0.935c8.107-4.833,25.881-14.812,49.579-14.812c20.268,0,28.687,7.796,27.128,15.903
			h0.624c12.473-9.667,32.741-15.903,51.138-15.903c26.816,0,28.687,11.382,28.687,16.215c0,3.118-1.559,8.731-3.118,12.317
			L374.235,128.117z" />
      <path fill="#0058b5" d="M501.455,132.326c-3.43,0.78-5.924,1.092-7.484-4.833c-0.935-3.43-1.559-5.769-1.559-8.887
			c-9.355,6.86-30.87,14.032-50.202,14.032c-15.28,0-34.612-4.677-34.612-25.102c0-17.774,10.29-32.742,24.01-42.252
			c14.344-9.978,33.053-14.968,50.203-14.968c17.774,0,28.687,4.833,34.3,8.419l3.43-4.21c0.623-0.779,1.247-1.559,4.365-1.559
			h24.634c1.559,0,4.054,0.156,2.806,3.43l-20.579,48.801c-2.183,4.989-2.183,9.355-2.183,10.446c0,2.495,0.312,4.054,0.935,6.392
			c0.624,1.715,1.248,2.651,1.248,3.586c0,1.091-1.871,1.247-3.43,1.559L501.455,132.326z M508.315,69.961l-1.871-0.779
			c-9.667-4.054-16.215-4.833-20.58-4.833c-12.161,0-19.956,5.301-23.698,8.263c-10.602,8.731-17.15,24.478-17.15,34.613
			c0,3.742,1.56,9.823,14.656,9.823c14.655,0,31.494-7.016,37.73-21.672L508.315,69.961z" />
      <path fill="#0058b5" d="M557.893,129.987c-3.118,0-4.677-0.312-4.677-1.871c0-0.624,0.311-1.248,0.623-2.183l42.719-100.564
			c0.624-1.091,0.624-2.183,5.612-2.183h50.826c22.451,0,70.159,2.183,70.159,33.365c0,11.382-4.989,28.688-16.839,41.785
			c-24.322,27.129-61.428,31.65-88.556,31.65H557.893z M620.256,113.617c24.322,0,41.16-10.134,49.267-20.737
			c6.236-8.108,11.537-24.011,11.537-34.769c0-17.618-24.01-18.554-33.988-18.554h-16.838l-31.182,74.059H620.256z" />
      <path fill="#0058b5" d="M837.42,122.036c0.624,0.936,1.871,1.56-4.365,3.274c-9.666,2.651-27.128,7.328-56.439,7.328
			c-30.559,0-53.633-8.42-53.633-29c0-21.828,19.956-39.29,48.02-47.71c9.043-2.65,22.763-5.613,40.848-5.613
			c28.063,0,45.525,7.796,45.525,20.58c0,8.42-6.86,14.812-17.462,19.333c-19.021,8.264-49.578,10.134-79.513,10.134v1.091
			c0,0.936,0,1.715,0,2.651c0,2.651,0.936,6.549,5.924,9.355c3.742,2.027,10.29,3.586,20.268,3.586
			c10.914,0,20.268-1.871,31.494-4.521c5.301-1.247,7.484-1.715,8.731-1.715c1.559,0,2.183,0.468,2.495,1.091L837.42,122.036z
			 M810.292,81.654c6.236-2.338,9.666-5.301,9.666-9.667c0-4.989-6.548-7.639-15.591-7.639c-14.655,0-32.429,5.613-39.601,21.984
			C776.928,86.487,799.378,85.708,810.292,81.654z" />
      <path fill="#0058b5" d="M917.557,126.557c0.624,1.715,1.871,2.495-5.612,3.898c-4.053,0.78-12.784,2.183-27.128,2.183
			c-26.193,0-29.311-8.42-29.311-14.344c0-6.081,2.807-11.538,4.365-15.28l34.612-79.984c0.935-2.027,2.807-2.339,5.612-2.651
			l28.687-2.962c1.56-0.156,4.989-0.468,4.989,0.624c0,0.623-0.312,1.091-0.936,2.807l-37.106,85.129
			c-0.624,1.559-2.183,5.301-2.183,6.704c0,1.247,0.936,3.118,7.172,3.118c2.807,0,4.365-0.156,6.548-0.468
			c2.807-0.312,3.742-0.624,4.989-0.624c1.871,0,2.183,0.624,2.183,1.092L917.557,126.557z" />
      <path fill="#0058b5" d="M1020.881,124.374c0.624,1.092,1.248,2.027-4.054,3.43c-9.666,2.651-32.741,4.833-47.396,4.833
			c-30.559,0-35.547-9.511-35.547-15.747c0-2.183,0.311-4.833,2.494-9.978l16.839-39.914h-20.58c-3.43,0-4.677-0.468-3.43-3.586
			l3.742-8.575c0.312-0.779,0.312-1.871,4.365-1.871h21.827l8.108-19.333c0.623-1.091,2.494-1.559,4.054-1.715l28.375-2.027
			c5.612-0.468,7.172-0.312,5.612,3.43l-8.731,19.645h41.783c1.871,0,5.613,0,3.742,2.807l-6.86,9.667
			c-0.936,1.247-1.871,1.559-4.365,1.559h-40.224l-14.967,36.951c-1.871,4.522-2.183,6.393-2.183,7.484
			c0,4.989,7.171,5.613,11.537,5.613c6.236,0,14.031-0.779,25.257-2.962c2.183-0.467,3.118-0.623,3.742-0.623
			c0.312,0,0.312,0,0.624,0c0.936,0.156,1.248,0.623,1.559,1.091L1020.881,124.374z" />
      <path fill="#0058b5" d="M1124.772,132.326c-3.43,0.78-5.924,1.092-7.484-4.833c-0.935-3.43-1.559-5.769-1.559-8.887
			c-9.355,6.86-30.87,14.032-50.202,14.032c-15.28,0-34.612-4.677-34.612-25.102c0-17.774,10.29-32.742,24.01-42.252
			c14.344-9.978,33.053-14.968,50.203-14.968c17.774,0,28.687,4.833,34.299,8.419l3.43-4.21c0.623-0.779,1.247-1.559,4.365-1.559
			h24.634c1.559,0,4.053,0.156,2.806,3.43l-20.579,48.801c-2.183,4.989-2.183,9.355-2.183,10.446c0,2.495,0.312,4.054,0.935,6.392
			c0.624,1.715,1.248,2.651,1.248,3.586c0,1.091-1.871,1.247-3.43,1.559L1124.772,132.326z M1131.632,69.961l-1.871-0.779
			c-9.667-4.054-16.215-4.833-20.58-4.833c-12.161,0-19.956,5.301-23.698,8.263c-10.602,8.731-17.15,24.478-17.15,34.613
			c0,3.742,1.56,9.823,14.656,9.823c14.655,0,31.494-7.016,37.73-21.672L1131.632,69.961z" />
    </g>
  </g>
  <g id="_x31_">
  </g>
</svg>